<?xml version="1.0" encoding="UTF-8" standalone="no"?>
<!DOCTYPE svg PUBLIC "-//W3C//DTD SVG 1.1//EN"
"http://www.w3.org/Graphics/SVG/1.1/DTD/svg11.dtd">
<svg viewBox="0 0 935 1210" version="1.1" xmlns="http://www.w3.org/2000/svg" xmlns:xlink="http://www.w3.org/1999/xlink">
<defs>
<style type="text/css"><![CDATA[
.g1_1{
fill: #FBD4B4;
}
.g2_1{
fill: #C0C0C0;
}
.g3_1{
fill: none;
stroke: #948A54;
stroke-width: 7.638889;
stroke-linecap: butt;
stroke-linejoin: round;
}
.g4_1{
fill: none;
stroke: #FF0000;
stroke-width: 3.0555556;
stroke-linecap: butt;
stroke-linejoin: round;
}
.g5_1{
}
]]></style>
</defs>
<path fill-rule="evenodd" d="M0,1210.2l935.2,0L935.2,0L0,0L0,1210.2Z" class="g1_1" />
<path fill-rule="evenodd" d="M171.2,931.9c11.8,11.8,23.5,23.6,35.3,35.3c7.6,7.6,12.9,11.7,16.1,12.3c4.2,0.9,8.2,-0.4,11.7,-3.9c1.2,-1.1,2.3,-2.3,3.5,-3.5c1.1,1.1,2.2,2.2,3.3,3.3c-13.1,13.1,-26.2,26.2,-39.3,39.4c-1.1,-1.1,-2.2,-2.2,-3.3,-3.4c1.1,-1.1,2.3,-2.2,3.4,-3.4c3.9,-3.9,5,-8.3,3.3,-13.3c-1,-2.8,-4.8,-7.6,-11.7,-14.5C167.4,954.1,141.4,928.1,115.3,902c-7.6,-7.6,-12.9,-11.7,-16,-12.3c-4.4,-0.9,-8.3,0.4,-11.8,3.9c-1.2,1.1,-2.3,2.3,-3.5,3.4c-1.1,-1,-2.2,-2.1,-3.3,-3.3C92,882.5,103.2,871.3,114.4,860.1c8.2,-8.2,15.7,-13.7,22.7,-16.2c7,-2.4,14.9,-2.7,23.4,-0.6c8.5,2.1,16.4,6.7,23.7,14c9.9,9.9,15.4,20.3,16.7,31.4c1.3,11.1,-2.7,21.3,-11.7,30.3c-2.3,2.2,-4.8,4.5,-7.8,6.6c-3.1,2.1,-6.4,4.3,-10.2,6.3Zm-5.1,-5c3.1,-1.8,5.7,-3.5,7.7,-5.1c2.2,-1.5,4,-3,5.2,-4.3c4.7,-4.6,6.4,-11.1,5,-19.4c-1.4,-8.1,-5.9,-16,-13.5,-23.6c-5.3,-5.3,-10.9,-9.3,-17.1,-12.2c-6,-2.9,-11.7,-3.9,-17,-3.2c-5.2,0.7,-9.6,3.1,-13.4,6.9c-2.3,2.3,-4.8,5.8,-7.2,10.5c16.8,16.8,33.6,33.6,50.3,50.4Z" class="g2_1" />
<path fill-rule="evenodd" d="M370.3,846.2c-8.1,8.2,-16.3,16.4,-24.5,24.5C316.7,862,287.3,854,258.1,845.2c-2.2,2.4,-4,4.4,-5.4,5.8c-0.6,0.6,-1.2,1.2,-2,1.8c-0.7,0.7,-1.3,1.4,-2.2,2c11.8,11.8,23.5,23.5,35.2,35.2c7.6,7.6,12.9,11.7,16.1,12.3c4.3,0.9,8.2,-0.3,11.6,-3.8c1.2,-1.2,2.4,-2.4,3.6,-3.6c1.1,1.1,2.2,2.2,3.3,3.3c-13.1,13.1,-26.2,26.2,-39.3,39.4c-1.1,-1.1,-2.2,-2.2,-3.3,-3.3c1.1,-1.2,2.3,-2.3,3.4,-3.5c3.9,-3.9,5,-8.3,3.3,-13.3c-0.9,-2.8,-4.8,-7.7,-11.6,-14.6c-26.1,-26,-52.2,-52.1,-78.2,-78.2c-7.6,-7.5,-13,-11.6,-16.1,-12.2c-4.4,-0.9,-8.4,0.4,-11.8,3.9c-1.2,1.1,-2.3,2.3,-3.5,3.4c-1,-1.1,-2.1,-2.2,-3.3,-3.3c11.2,-11.1,22.3,-22.3,33.5,-33.4c9.7,-9.8,17.8,-16.1,24.4,-18.9c6.5,-2.6,13.9,-3.2,22.1,-1.4c8.3,2,15.9,6.3,22.8,13.2c7.5,7.4,12.1,15.8,13.9,24.9c1.8,9.1,-0.1,18.8,-5.5,28.7c17.8,5.4,35.8,10.4,53.7,15.8c12.2,3.7,21.3,5.2,27,4.7c5.7,-0.5,11.5,-2.9,17.2,-7.2c1.1,1.1,2.2,2.2,3.3,3.3Zm-127.4,3c0.9,-0.9,1.6,-1.6,2.2,-2.2c0.7,-0.5,1.3,-1.1,1.7,-1.5c8.7,-8.7,13,-17.9,12.3,-27.3c-0.7,-9.4,-4.7,-18,-12.4,-25.8c-7.6,-7.5,-15.6,-11.9,-23.9,-13.1c-8.3,-1.2,-15.4,1.4,-21.3,7.2c-2.6,2.7,-5.7,6.7,-8.9,12.4c16.8,16.8,33.5,33.5,50.3,50.3Z" class="g2_1" />
<path fill-rule="evenodd" d="M296,672.9c12,-11.9,28.3,-16.5,48.9,-13.1c20.7,3.4,39.9,13.7,57.8,31.6c18.4,18.4,29,38.1,32.6,59c3.5,20.9,-1.3,37.6,-13.8,50.2c-12.7,12.6,-29.1,17.5,-49.6,14c-20.4,-3.4,-40.1,-14.2,-58.9,-33C293.8,762.4,283.3,741.7,280.9,719.7C278.8,700.5,284,684.9,296,672.9Zm5.3,7.8c-8.2,8.2,-11,18.9,-7.8,31.8c4,16.2,15.4,34,34.7,53.2c19.7,19.7,38.2,31.7,55.2,36c13,3.3,23.6,0.7,31.6,-7.3c8.6,-8.6,11.5,-20.3,8.1,-34.8c-3.3,-14.4,-14.4,-31.2,-33.5,-50.3C368.9,688.6,350.3,676.4,334,672.3C321,669,310,672,301.3,680.7Z" class="g2_1" />
<path fill-rule="evenodd" d="M429,540c14.4,13,28.8,26,43.2,39c-0.7,0.7,-1.4,1.4,-2.1,2.1c-15,-9.6,-27.9,-14.2,-38.6,-14.6c-10.6,-0.3,-19.5,3.3,-26.8,10.6c-6.1,6.1,-9.6,13.6,-10.4,22.6c-0.8,9,1.7,19.4,7.9,31.1c6.2,11.7,15.8,24.3,29,37.6c11,10.9,21.9,19,32.5,24.4c10.7,5.5,20.9,7.4,30.6,6.4c9.6,-0.9,17.8,-5,24.7,-11.8c5.9,-6,9.6,-12.9,10.6,-20.9c1.2,-7.8,-0.3,-19.6,-4.9,-35c1.3,-0.1,2.6,-0.2,3.9,-0.3c6.3,15.3,8.6,28.6,7.5,39.8c-1,11.1,-5.9,20.9,-14.4,29.3c-15.2,15.3,-34.4,19.8,-57.6,13.1c-17.3,-5,-33.5,-14.8,-48.5,-29.8c-12,-12,-21,-25.3,-27.1,-39.4c-6,-14.2,-8.1,-27.7,-6.6,-40.6c1.6,-12.7,6.8,-23.3,15.3,-31.9c6.7,-6.6,15.3,-11.1,26.1,-13.2c3.2,-0.5,5.2,-1.3,6,-2.1c1.2,-1.2,1.8,-2.8,1.5,-4.9c-0.5,-2.7,-1.8,-5.8,-4.2,-9.2c0.8,-0.7,1.6,-1.5,2.4,-2.3Z" class="g2_1" />
<path fill-rule="evenodd" d="M488.7,480.2c11.9,-11.9,28.3,-16.5,48.9,-13.1c20.6,3.4,39.9,13.8,57.8,31.6c18.3,18.4,29,38.1,32.5,59c3.6,20.9,-1.2,37.7,-13.7,50.2C601.5,620.6,585,625.4,564.6,622c-20.5,-3.5,-40.1,-14.3,-58.9,-33.1C486.5,569.7,475.9,549.1,473.5,527c-2.1,-19.1,3.2,-34.8,15.2,-46.8Zm5.2,7.8c-8.2,8.3,-10.9,18.9,-7.7,31.9c4,16.1,15.4,33.9,34.7,53.2c19.7,19.7,38.1,31.6,55.2,35.9c13,3.3,23.5,0.8,31.6,-7.3c8.6,-8.6,11.4,-20.3,8.1,-34.7c-3.3,-14.4,-14.5,-31.3,-33.5,-50.4C561.5,495.9,543,483.8,526.7,479.6c-13.1,-3.3,-24,-0.3,-32.8,8.4Z" class="g2_1" />
<path fill-rule="evenodd" d="M588.9,380.1c11.9,-11.9,28.3,-16.5,48.8,-13.2c20.7,3.4,40,13.8,57.8,31.7c18.4,18.3,29,38.1,32.6,59c3.5,20.9,-1.2,37.6,-13.8,50.1c-12.6,12.7,-29.1,17.5,-49.6,14.1c-20.4,-3.5,-40,-14.2,-58.9,-33c-19.1,-19.2,-29.7,-39.9,-32.1,-62c-2.1,-19.1,3.2,-34.7,15.2,-46.7Zm5.2,7.8c-8.2,8.2,-10.9,18.9,-7.7,31.8c3.9,16.1,15.3,33.9,34.6,53.2c19.7,19.7,38.2,31.6,55.2,36c13.1,3.3,23.6,0.7,31.7,-7.4c8.6,-8.6,11.4,-20.2,8.1,-34.7c-3.4,-14.4,-14.5,-31.2,-33.6,-50.3C661.7,395.8,643.1,383.6,626.8,379.4c-13,-3.3,-24,-0.3,-32.7,8.5Z" class="g2_1" />
<path fill-rule="evenodd" d="M733.9,369.3c11.7,11.8,23.5,23.5,35.2,35.3c7.6,7.6,12.9,11.7,16.1,12.3c4.3,0.9,8.3,-0.4,11.7,-3.9c1.2,-1.2,2.4,-2.3,3.5,-3.5c1.1,1.1,2.2,2.2,3.3,3.3c-13.1,13.1,-26.2,26.2,-39.3,39.3c-1.1,-1.1,-2.2,-2.2,-3.3,-3.3c1.1,-1.1,2.3,-2.3,3.4,-3.4c3.9,-3.9,5,-8.4,3.4,-13.3c-1,-2.8,-4.9,-7.7,-11.8,-14.5C730,391.5,704,365.5,677.9,339.4C670.3,331.8,665,327.7,661.9,327c-4.3,-0.8,-8.3,0.5,-11.8,4c-1.1,1.1,-2.3,2.3,-3.4,3.4c-1.1,-1.1,-2.2,-2.2,-3.3,-3.3c11.2,-11.2,22.4,-22.4,33.6,-33.6c8.2,-8.2,15.8,-13.7,22.8,-16.2c7,-2.4,14.8,-2.7,23.3,-0.6c8.5,2.1,16.5,6.7,23.7,13.9c9.9,9.9,15.4,20.4,16.7,31.5c1.3,11.1,-2.7,21.3,-11.7,30.3c-2.2,2.2,-4.8,4.4,-7.8,6.5c-3,2.1,-6.4,4.3,-10.1,6.4Zm-5.1,-5.1c3,-1.7,5.6,-3.4,7.7,-5c2.1,-1.5,3.9,-3,5.2,-4.3c4.6,-4.7,6.4,-11.1,4.9,-19.4c-1.4,-8.1,-5.9,-16.1,-13.5,-23.7c-5.2,-5.2,-10.9,-9.2,-17,-12.1c-6.1,-2.9,-11.8,-3.9,-17,-3.2c-5.3,0.7,-9.7,3.1,-13.5,6.8c-2.3,2.3,-4.8,5.8,-7.2,10.6c16.8,16.8,33.6,33.6,50.4,50.3Z" class="g2_1" />
<image preserveAspectRatio="none" x="337" y="55" width="261" height="36" xlink:href="img/1.png" />
<path d="M30.6,1184l863.6,0l0,-1158L30.6,26l0,1158Z" class="g3_1" />
<path d="M30.9,153.4l863.7,1.5" class="g4_1" />
<path fill-rule="evenodd" d="M280.3,183.7l374.3,0l0,-2.4l-374.3,0l0,2.4Z" class="g5_1" />
<path fill-rule="evenodd" d="M55,239.1l210.5,0l0,-1.8L55,237.3l0,1.8Z" class="g5_1" />
<path fill-rule="evenodd" d="M55,417.2l246.8,0l0,-1.9L55,415.3l0,1.9Z" class="g5_1" />
<path fill-rule="evenodd" d="M55,573l121.2,0l0,-1.8L55,571.2l0,1.8Z" class="g5_1" />
<path fill-rule="evenodd" d="M55,834.1l297.4,0l0,-1.8L55,832.3l0,1.8Z" class="g5_1" />
</svg>