<?xml version="1.0" encoding="UTF-8" standalone="no"?>
<!DOCTYPE svg PUBLIC "-//W3C//DTD SVG 1.1//EN"
"http://www.w3.org/Graphics/SVG/1.1/DTD/svg11.dtd">
<svg viewBox="0 0 935 1210" version="1.1" xmlns="http://www.w3.org/2000/svg" xmlns:xlink="http://www.w3.org/1999/xlink">
<defs>
<clipPath id="c0_1"><path d="M179.5,733.8l0,-43.6l160.3,0l0,43.6Z" /></clipPath>
<clipPath id="c1_1"><path d="M602.4,734.7l0,-48.9l289.7,0l0,48.9Z" /></clipPath>
<clipPath id="c2_1"><path d="M322.2,736l0,-49.1l290.8,0l0,49.1Z" /></clipPath>
<clipPath id="c3_1"><path d="M32.6,1079.4l0,-136.9l579.9,0l0,136.9Z" /></clipPath>
<style type="text/css"><![CDATA[
.g1_1{
fill: none;
stroke: #948A54;
stroke-width: 7.638889;
stroke-linecap: butt;
stroke-linejoin: round;
}
.g2_1{
fill: none;
stroke: #FF0000;
stroke-width: 3.0555556;
stroke-linecap: butt;
stroke-linejoin: round;
}
.g3_1{
}
.g4_1{
fill: #FF0000;
}
.g5_1{
fill: #BEBEBE;
}
.g6_1{
fill: #FFFFFF;
}
]]></style>
</defs>
<image preserveAspectRatio="none" x="337" y="55" width="261" height="36" xlink:href="img/1.png" />
<path d="M30.6,1184l863.6,0l0,-1158L30.6,26l0,1158Z" class="g1_1" />
<path d="M30.9,153.4l863.7,1.5" class="g2_1" />
<path fill-rule="evenodd" d="M255.8,180.2l423.6,0l0,-2l-423.6,0l0,2Z" class="g3_1" />
<path fill-rule="evenodd" d="M55,212.9l184.1,0l0,-1.5L55,211.4l0,1.5Z" class="g3_1" />
<path fill-rule="evenodd" d="M55,341.9l125.4,0l0,-1.4L55,340.5l0,1.4Z" class="g3_1" />
<path fill-rule="evenodd" d="M55,436.4l180.2,0l0,-1.5L55,434.9l0,1.5Z" class="g3_1" />
<path fill-rule="evenodd" d="M55,472.9l203.9,0l0,-1.5L55,471.4l0,1.5Z" class="g3_1" />
<path fill-rule="evenodd" d="M55,704.8l123.6,0l0,-1.4L55,703.4l0,1.4Z" class="g3_1" />
<path fill-rule="evenodd" d="M71.1,723.4l68.8,0l0,-1.5l-68.8,0l0,1.5Z" class="g3_1" />
<path fill-rule="evenodd" d="M55,774.7l153.7,0l0,-1.5L55,773.2l0,1.5Z" class="g3_1" />
<path fill-rule="evenodd" d="M55,939.6l212.5,0l0,-1.5L55,938.1l0,1.5Z" class="g4_1" />
<path fill-rule="evenodd" d="M194,733.1l35,0l0,-42.2l-35,0l0,42.2Z" class="g5_1" />
<path fill-rule="evenodd" d="M201.9,718.6l19.2,0l0,-27.7l-19.2,0l0,27.7Z" class="g5_1" />
<g clip-path="url(#c0_1)">
<path fill-rule="evenodd" d="M193.3,690.9l0.7,0l0,-0.7l-0.7,0l0,0.7Z" class="g3_1" />
<path fill-rule="evenodd" d="M193.3,690.9l0.7,0l0,-0.7l-0.7,0l0,0.7Z" class="g3_1" />
<path fill-rule="evenodd" d="M194,690.9l35,0l0,-0.7l-35,0l0,0.7Z" class="g3_1" />
<path fill-rule="evenodd" d="M229,690.9l0.7,0l0,-0.7l-0.7,0l0,0.7Z" class="g3_1" />
<path fill-rule="evenodd" d="M229.7,690.9l95.6,0l0,-0.7l-95.6,0l0,0.7Z" class="g3_1" />
<path fill-rule="evenodd" d="M325.3,690.9l0.7,0l0,-0.7l-0.7,0l0,0.7Z" class="g3_1" />
<path fill-rule="evenodd" d="M325.3,690.9l0.7,0l0,-0.7l-0.7,0l0,0.7Z" class="g3_1" />
</g>
<path fill-rule="evenodd" d="M193.3,733.1l0.7,0l0,-42.2l-0.7,0l0,42.2Z" class="g3_1" />
<path fill-rule="evenodd" d="M193.3,733.8l0.7,0l0,-0.7l-0.7,0l0,0.7Z" class="g3_1" />
<path fill-rule="evenodd" d="M193.3,733.8l0.7,0l0,-0.7l-0.7,0l0,0.7Z" class="g3_1" />
<path fill-rule="evenodd" d="M194,733.8l35,0l0,-0.7l-35,0l0,0.7Z" class="g3_1" />
<path fill-rule="evenodd" d="M229,733.1l0.7,0l0,-42.2l-0.7,0l0,42.2Z" class="g3_1" />
<path fill-rule="evenodd" d="M229,733.8l0.7,0l0,-0.7l-0.7,0l0,0.7Z" class="g3_1" />
<path fill-rule="evenodd" d="M229.7,733.8l95.6,0l0,-0.7l-95.6,0l0,0.7Z" class="g3_1" />
<path fill-rule="evenodd" d="M325.3,733.1l0.7,0l0,-42.2l-0.7,0l0,42.2Z" class="g3_1" />
<path fill-rule="evenodd" d="M325.3,733.8l0.7,0l0,-0.7l-0.7,0l0,0.7Z" class="g3_1" />
<path fill-rule="evenodd" d="M325.3,733.8l0.7,0l0,-0.7l-0.7,0l0,0.7Z" class="g3_1" />
<path fill-rule="evenodd" d="M617,733.8l33.6,0l0,-47.3l-33.6,0l0,47.3Z" class="g5_1" />
<path fill-rule="evenodd" d="M624.7,714.2l18,0l0,-27.7l-18,0l0,27.7Z" class="g5_1" />
<g clip-path="url(#c1_1)">
<path fill-rule="evenodd" d="M616.1,686.5l0.7,0l0,-0.7l-0.7,0l0,0.7Z" class="g3_1" />
<path fill-rule="evenodd" d="M616.1,686.5l0.7,0l0,-0.7l-0.7,0l0,0.7Z" class="g3_1" />
<path fill-rule="evenodd" d="M616.8,686.5l33.8,0l0,-0.7l-33.8,0l0,0.7Z" class="g3_1" />
<path fill-rule="evenodd" d="M650.6,686.5l0.7,0l0,-0.7l-0.7,0l0,0.7Z" class="g3_1" />
<path fill-rule="evenodd" d="M651.3,686.5l226.1,0l0,-0.7l-226.1,0l0,0.7Z" class="g3_1" />
<path fill-rule="evenodd" d="M877.4,686.5l0.7,0l0,-0.7l-0.7,0l0,0.7Z" class="g3_1" />
<path fill-rule="evenodd" d="M877.4,686.5l0.7,0l0,-0.7l-0.7,0l0,0.7Z" class="g3_1" />
</g>
<path fill-rule="evenodd" d="M616.1,734l0.7,0l0,-47.5l-0.7,0l0,47.5Z" class="g3_1" />
<path fill-rule="evenodd" d="M616.1,734.7l0.7,0l0,-0.7l-0.7,0l0,0.7Z" class="g3_1" />
<path fill-rule="evenodd" d="M616.1,734.7l0.7,0l0,-0.7l-0.7,0l0,0.7Z" class="g3_1" />
<path fill-rule="evenodd" d="M616.8,734.7l33.8,0l0,-0.7l-33.8,0l0,0.7Z" class="g3_1" />
<path fill-rule="evenodd" d="M650.6,734l0.7,0l0,-47.5l-0.7,0l0,47.5Z" class="g3_1" />
<path fill-rule="evenodd" d="M650.6,734.7l0.7,0l0,-0.7l-0.7,0l0,0.7Z" class="g3_1" />
<path fill-rule="evenodd" d="M651.3,734.7l226.1,0l0,-0.7l-226.1,0l0,0.7Z" class="g3_1" />
<path fill-rule="evenodd" d="M877.4,734l0.7,0l0,-47.5l-0.7,0l0,47.5Z" class="g3_1" />
<path fill-rule="evenodd" d="M877.4,734.7l0.7,0l0,-0.7l-0.7,0l0,0.7Z" class="g3_1" />
<path fill-rule="evenodd" d="M877.4,734.7l0.7,0l0,-0.7l-0.7,0l0,0.7Z" class="g3_1" />
<path fill-rule="evenodd" d="M336.7,735.3l40.5,0l0,-47.7l-40.5,0l0,47.7Z" class="g5_1" />
<path fill-rule="evenodd" d="M344.6,708.7l24.7,0l0,-21.1l-24.7,0l0,21.1Z" class="g5_1" />
<g clip-path="url(#c2_1)">
<path fill-rule="evenodd" d="M335.9,687.6l0.8,0l0,-0.7l-0.8,0l0,0.7Z" class="g3_1" />
<path fill-rule="evenodd" d="M335.9,687.6l0.8,0l0,-0.7l-0.8,0l0,0.7Z" class="g3_1" />
<path fill-rule="evenodd" d="M336.7,687.6l40.5,0l0,-0.7l-40.5,0l0,0.7Z" class="g3_1" />
<path fill-rule="evenodd" d="M377.2,687.6l0.7,0l0,-0.7l-0.7,0l0,0.7Z" class="g3_1" />
<path fill-rule="evenodd" d="M377.9,687.6l220.8,0l0,-0.7l-220.8,0l0,0.7Z" class="g3_1" />
<path fill-rule="evenodd" d="M598.7,687.6l0.7,0l0,-0.7l-0.7,0l0,0.7Z" class="g3_1" />
<path fill-rule="evenodd" d="M598.7,687.6l0.7,0l0,-0.7l-0.7,0l0,0.7Z" class="g3_1" />
</g>
<path fill-rule="evenodd" d="M335.9,735.3l0.8,0l0,-47.7l-0.8,0l0,47.7Z" class="g3_1" />
<path fill-rule="evenodd" d="M335.9,736l0.8,0l0,-0.7l-0.8,0l0,0.7Z" class="g3_1" />
<path fill-rule="evenodd" d="M335.9,736l0.8,0l0,-0.7l-0.8,0l0,0.7Z" class="g3_1" />
<path fill-rule="evenodd" d="M336.7,736l40.5,0l0,-0.7l-40.5,0l0,0.7Z" class="g3_1" />
<path fill-rule="evenodd" d="M377.2,735.3l0.7,0l0,-47.7l-0.7,0l0,47.7Z" class="g3_1" />
<path fill-rule="evenodd" d="M377.2,736l0.7,0l0,-0.7l-0.7,0l0,0.7Z" class="g3_1" />
<path fill-rule="evenodd" d="M377.9,736l220.8,0l0,-0.7l-220.8,0l0,0.7Z" class="g3_1" />
<path fill-rule="evenodd" d="M598.7,735.3l0.7,0l0,-47.7l-0.7,0l0,47.7Z" class="g3_1" />
<path fill-rule="evenodd" d="M598.7,736l0.7,0l0,-0.7l-0.7,0l0,0.7Z" class="g3_1" />
<path fill-rule="evenodd" d="M598.7,736l0.7,0l0,-0.7l-0.7,0l0,0.7Z" class="g3_1" />
<path fill-rule="evenodd" d="M54.6,943.2l0.8,0l0,-0.7l-0.8,0l0,0.7Z" class="g3_1" />
<path fill-rule="evenodd" d="M54.6,943.2l0.8,0l0,-0.7l-0.8,0l0,0.7Z" class="g3_1" />
<path fill-rule="evenodd" d="M55.4,943.2l54.3,0l0,-0.7l-54.3,0l0,0.7Z" class="g3_1" />
<path fill-rule="evenodd" d="M109.7,943.2l0.7,0l0,-0.7l-0.7,0l0,0.7Z" class="g3_1" />
<path fill-rule="evenodd" d="M110.4,943.2l295,0l0,-0.7l-295,0l0,0.7Z" class="g3_1" />
<path fill-rule="evenodd" d="M405.4,943.2l0.8,0l0,-0.7l-0.8,0l0,0.7Z" class="g3_1" />
<path fill-rule="evenodd" d="M406.2,943.2l191.8,0l0,-0.7l-191.8,0l0,0.7Z" class="g3_1" />
<path fill-rule="evenodd" d="M598,943.2l0.7,0l0,-0.7l-0.7,0l0,0.7Z" class="g3_1" />
<path fill-rule="evenodd" d="M598,943.2l0.7,0l0,-0.7l-0.7,0l0,0.7Z" class="g3_1" />
<path fill-rule="evenodd" d="M54.6,965l0.8,0l0,-21.8l-0.8,0l0,21.8Z" class="g3_1" />
<path fill-rule="evenodd" d="M109.7,965l0.7,0l0,-21.8l-0.7,0l0,21.8Z" class="g3_1" />
<path fill-rule="evenodd" d="M405.4,965l0.8,0l0,-21.8l-0.8,0l0,21.8Z" class="g3_1" />
<path fill-rule="evenodd" d="M598,965l0.7,0l0,-21.8l-0.7,0l0,21.8Z" class="g3_1" />
<path fill-rule="evenodd" d="M55.4,983.4l54.3,0l0,-17.4l-54.3,0l0,17.4Z" class="g6_1" />
<path fill-rule="evenodd" d="M63.3,983.4l38.5,0l0,-17.4l-38.5,0l0,17.4Z" class="g6_1" />
<path fill-rule="evenodd" d="M110.4,983.4l294.8,0l0,-17.4l-294.8,0l0,17.4Z" class="g6_1" />
<path fill-rule="evenodd" d="M118.3,983.4l279.1,0l0,-17.4l-279.1,0l0,17.4Z" class="g6_1" />
<path fill-rule="evenodd" d="M406.2,983.4l191.6,0l0,-17.4l-191.6,0l0,17.4Z" class="g6_1" />
<path fill-rule="evenodd" d="M413.9,983.4l176,0l0,-17.4l-176,0l0,17.4Z" class="g6_1" />
<path fill-rule="evenodd" d="M54.6,965.8l0.8,0l0,-0.8l-0.8,0l0,0.8Z" class="g3_1" />
<path fill-rule="evenodd" d="M55.4,965.8l54.3,0l0,-0.8l-54.3,0l0,0.8Z" class="g3_1" />
<path fill-rule="evenodd" d="M109.7,965.8l0.7,0l0,-0.8l-0.7,0l0,0.8Z" class="g3_1" />
<path fill-rule="evenodd" d="M110.4,965.8l295,0l0,-0.8l-295,0l0,0.8Z" class="g3_1" />
<path fill-rule="evenodd" d="M405.4,965.8l0.8,0l0,-0.8l-0.8,0l0,0.8Z" class="g3_1" />
<path fill-rule="evenodd" d="M406.2,965.8l191.8,0l0,-0.8l-191.8,0l0,0.8Z" class="g3_1" />
<path fill-rule="evenodd" d="M598,965.8l0.7,0l0,-0.8l-0.7,0l0,0.8Z" class="g3_1" />
<path fill-rule="evenodd" d="M54.6,983.4l0.8,0l0,-17.6l-0.8,0l0,17.6Z" class="g3_1" />
<path fill-rule="evenodd" d="M109.7,983.4l0.7,0l0,-17.6l-0.7,0l0,17.6Z" class="g3_1" />
<path fill-rule="evenodd" d="M405.4,983.4l0.8,0l0,-17.6l-0.8,0l0,17.6Z" class="g3_1" />
<path fill-rule="evenodd" d="M598,983.4l0.7,0l0,-17.6l-0.7,0l0,17.6Z" class="g3_1" />
<path fill-rule="evenodd" d="M54.6,984.1l0.8,0l0,-0.7l-0.8,0l0,0.7Z" class="g3_1" />
<path fill-rule="evenodd" d="M55.4,984.1l54.3,0l0,-0.7l-54.3,0l0,0.7Z" class="g3_1" />
<path fill-rule="evenodd" d="M109.7,984.1l0.7,0l0,-0.7l-0.7,0l0,0.7Z" class="g3_1" />
<path fill-rule="evenodd" d="M110.4,984.1l295,0l0,-0.7l-295,0l0,0.7Z" class="g3_1" />
<path fill-rule="evenodd" d="M405.4,984.1l0.8,0l0,-0.7l-0.8,0l0,0.7Z" class="g3_1" />
<path fill-rule="evenodd" d="M406.2,984.1l191.8,0l0,-0.7l-191.8,0l0,0.7Z" class="g3_1" />
<path fill-rule="evenodd" d="M598,984.1l0.7,0l0,-0.7l-0.7,0l0,0.7Z" class="g3_1" />
<path fill-rule="evenodd" d="M54.6,1001.7l0.8,0l0,-17.6l-0.8,0l0,17.6Z" class="g3_1" />
<path fill-rule="evenodd" d="M109.7,1001.7l0.7,0l0,-17.6l-0.7,0l0,17.6Z" class="g3_1" />
<path fill-rule="evenodd" d="M405.4,1001.7l0.8,0l0,-17.6l-0.8,0l0,17.6Z" class="g3_1" />
<path fill-rule="evenodd" d="M598,1001.7l0.7,0l0,-17.6l-0.7,0l0,17.6Z" class="g3_1" />
<path fill-rule="evenodd" d="M54.6,1002.4l0.8,0l0,-0.7l-0.8,0l0,0.7Z" class="g3_1" />
<path fill-rule="evenodd" d="M55.4,1002.4l54.3,0l0,-0.7l-54.3,0l0,0.7Z" class="g3_1" />
<path fill-rule="evenodd" d="M109.7,1002.4l0.7,0l0,-0.7l-0.7,0l0,0.7Z" class="g3_1" />
<path fill-rule="evenodd" d="M110.4,1002.4l295,0l0,-0.7l-295,0l0,0.7Z" class="g3_1" />
<path fill-rule="evenodd" d="M405.4,1002.4l0.8,0l0,-0.7l-0.8,0l0,0.7Z" class="g3_1" />
<path fill-rule="evenodd" d="M406.2,1002.4l191.8,0l0,-0.7l-191.8,0l0,0.7Z" class="g3_1" />
<path fill-rule="evenodd" d="M598,1002.4l0.7,0l0,-0.7l-0.7,0l0,0.7Z" class="g3_1" />
<path fill-rule="evenodd" d="M54.6,1020l0.8,0l0,-17.6l-0.8,0l0,17.6Z" class="g3_1" />
<path fill-rule="evenodd" d="M109.7,1020l0.7,0l0,-17.6l-0.7,0l0,17.6Z" class="g3_1" />
<path fill-rule="evenodd" d="M405.4,1020l0.8,0l0,-17.6l-0.8,0l0,17.6Z" class="g3_1" />
<path fill-rule="evenodd" d="M598,1020l0.7,0l0,-17.6l-0.7,0l0,17.6Z" class="g3_1" />
<path fill-rule="evenodd" d="M54.6,1020.8l0.8,0l0,-0.8l-0.8,0l0,0.8Z" class="g3_1" />
<path fill-rule="evenodd" d="M55.4,1020.8l54.3,0l0,-0.8l-54.3,0l0,0.8Z" class="g3_1" />
<path fill-rule="evenodd" d="M109.7,1020.8l0.7,0l0,-0.8l-0.7,0l0,0.8Z" class="g3_1" />
<path fill-rule="evenodd" d="M110.4,1020.8l295,0l0,-0.8l-295,0l0,0.8Z" class="g3_1" />
<path fill-rule="evenodd" d="M405.4,1020.8l0.8,0l0,-0.8l-0.8,0l0,0.8Z" class="g3_1" />
<path fill-rule="evenodd" d="M406.2,1020.8l191.8,0l0,-0.8l-191.8,0l0,0.8Z" class="g3_1" />
<path fill-rule="evenodd" d="M598,1020.8l0.7,0l0,-0.8l-0.7,0l0,0.8Z" class="g3_1" />
<path fill-rule="evenodd" d="M54.6,1038.4l0.8,0l0,-17.6l-0.8,0l0,17.6Z" class="g3_1" />
<path fill-rule="evenodd" d="M109.7,1038.4l0.7,0l0,-17.6l-0.7,0l0,17.6Z" class="g3_1" />
<path fill-rule="evenodd" d="M405.4,1038.4l0.8,0l0,-17.6l-0.8,0l0,17.6Z" class="g3_1" />
<path fill-rule="evenodd" d="M598,1038.4l0.7,0l0,-17.6l-0.7,0l0,17.6Z" class="g3_1" />
<path fill-rule="evenodd" d="M55.4,1060.4l54.3,0l0,-21.3l-54.3,0l0,21.3Z" class="g5_1" />
<path fill-rule="evenodd" d="M63.3,1056.7l38.5,0l0,-17.6l-38.5,0l0,17.6Z" class="g5_1" />
<path fill-rule="evenodd" d="M110.4,1060.4l294.8,0l0,-21.3l-294.8,0l0,21.3Z" class="g5_1" />
<path fill-rule="evenodd" d="M118.3,1056.7l279.1,0l0,-17.6l-279.1,0l0,17.6Z" class="g5_1" />
<path fill-rule="evenodd" d="M406.2,1060.4l191.6,0l0,-21.3l-191.6,0l0,21.3Z" class="g5_1" />
<path fill-rule="evenodd" d="M413.9,1056.7l176,0l0,-17.6l-176,0l0,17.6Z" class="g5_1" />
<path fill-rule="evenodd" d="M54.6,1039.1l0.8,0l0,-0.7l-0.8,0l0,0.7Z" class="g3_1" />
<path fill-rule="evenodd" d="M55.4,1039.1l54.3,0l0,-0.7l-54.3,0l0,0.7Z" class="g3_1" />
<path fill-rule="evenodd" d="M109.7,1039.1l0.7,0l0,-0.7l-0.7,0l0,0.7Z" class="g3_1" />
<path fill-rule="evenodd" d="M110.4,1039.1l295,0l0,-0.7l-295,0l0,0.7Z" class="g3_1" />
<path fill-rule="evenodd" d="M405.4,1039.1l0.8,0l0,-0.7l-0.8,0l0,0.7Z" class="g3_1" />
<path fill-rule="evenodd" d="M406.2,1039.1l191.8,0l0,-0.7l-191.8,0l0,0.7Z" class="g3_1" />
<path fill-rule="evenodd" d="M598,1039.1l0.7,0l0,-0.7l-0.7,0l0,0.7Z" class="g3_1" />
<path fill-rule="evenodd" d="M54.6,1060.4l0.8,0l0,-21.3l-0.8,0l0,21.3Z" class="g3_1" />
<path fill-rule="evenodd" d="M109.7,1060.4l0.7,0l0,-21.3l-0.7,0l0,21.3Z" class="g3_1" />
<path fill-rule="evenodd" d="M405.4,1060.4l0.8,0l0,-21.3l-0.8,0l0,21.3Z" class="g3_1" />
<path fill-rule="evenodd" d="M598,1060.4l0.7,0l0,-21.3l-0.7,0l0,21.3Z" class="g3_1" />
<path fill-rule="evenodd" d="M55.4,1078.7l54.3,0l0,-17.6l-54.3,0l0,17.6Z" class="g5_1" />
<path fill-rule="evenodd" d="M63.3,1078.7l38.5,0l0,-17.6l-38.5,0l0,17.6Z" class="g5_1" />
<path fill-rule="evenodd" d="M110.4,1078.7l294.8,0l0,-17.6l-294.8,0l0,17.6Z" class="g5_1" />
<path fill-rule="evenodd" d="M118.3,1078.7l279.1,0l0,-17.6l-279.1,0l0,17.6Z" class="g5_1" />
<path fill-rule="evenodd" d="M406.2,1078.7l191.6,0l0,-17.6l-191.6,0l0,17.6Z" class="g5_1" />
<path fill-rule="evenodd" d="M413.9,1078.7l176,0l0,-17.6l-176,0l0,17.6Z" class="g5_1" />
<path fill-rule="evenodd" d="M54.6,1061.1l0.8,0l0,-0.7l-0.8,0l0,0.7Z" class="g3_1" />
<path fill-rule="evenodd" d="M55.4,1061.1l54.3,0l0,-0.7l-54.3,0l0,0.7Z" class="g3_1" />
<path fill-rule="evenodd" d="M109.7,1061.1l0.7,0l0,-0.7l-0.7,0l0,0.7Z" class="g3_1" />
<path fill-rule="evenodd" d="M110.4,1061.1l295,0l0,-0.7l-295,0l0,0.7Z" class="g3_1" />
<path fill-rule="evenodd" d="M405.4,1061.1l0.8,0l0,-0.7l-0.8,0l0,0.7Z" class="g3_1" />
<path fill-rule="evenodd" d="M406.2,1061.1l191.8,0l0,-0.7l-191.8,0l0,0.7Z" class="g3_1" />
<path fill-rule="evenodd" d="M598,1061.1l0.7,0l0,-0.7l-0.7,0l0,0.7Z" class="g3_1" />
<path fill-rule="evenodd" d="M54.6,1078.7l0.8,0l0,-17.6l-0.8,0l0,17.6Z" class="g3_1" />
<g clip-path="url(#c3_1)">
<path fill-rule="evenodd" d="M54.6,1079.4l0.8,0l0,-0.7l-0.8,0l0,0.7Z" class="g3_1" />
<path fill-rule="evenodd" d="M54.6,1079.4l0.8,0l0,-0.7l-0.8,0l0,0.7Z" class="g3_1" />
<path fill-rule="evenodd" d="M55.4,1079.4l54.3,0l0,-0.7l-54.3,0l0,0.7Z" class="g3_1" />
</g>
<path fill-rule="evenodd" d="M109.7,1078.7l0.7,0l0,-17.6l-0.7,0l0,17.6Z" class="g3_1" />
<g clip-path="url(#c3_1)">
<path fill-rule="evenodd" d="M109.7,1079.4l0.7,0l0,-0.7l-0.7,0l0,0.7Z" class="g3_1" />
<path fill-rule="evenodd" d="M110.4,1079.4l295,0l0,-0.7l-295,0l0,0.7Z" class="g3_1" />
</g>
<path fill-rule="evenodd" d="M405.4,1078.7l0.8,0l0,-17.6l-0.8,0l0,17.6Z" class="g3_1" />
<g clip-path="url(#c3_1)">
<path fill-rule="evenodd" d="M405.4,1079.4l0.8,0l0,-0.7l-0.8,0l0,0.7Z" class="g3_1" />
<path fill-rule="evenodd" d="M406.2,1079.4l191.8,0l0,-0.7l-191.8,0l0,0.7Z" class="g3_1" />
</g>
<path fill-rule="evenodd" d="M598,1078.7l0.7,0l0,-17.6l-0.7,0l0,17.6Z" class="g3_1" />
<g clip-path="url(#c3_1)">
<path fill-rule="evenodd" d="M598,1079.4l0.7,0l0,-0.7l-0.7,0l0,0.7Z" class="g3_1" />
<path fill-rule="evenodd" d="M598,1079.4l0.7,0l0,-0.7l-0.7,0l0,0.7Z" class="g3_1" />
</g>
</svg>