<?xml version="1.0" encoding="UTF-8" standalone="no"?>
<!DOCTYPE svg PUBLIC "-//W3C//DTD SVG 1.1//EN"
"http://www.w3.org/Graphics/SVG/1.1/DTD/svg11.dtd">
<svg viewBox="0 0 935 1210" version="1.1" xmlns="http://www.w3.org/2000/svg" xmlns:xlink="http://www.w3.org/1999/xlink">
<defs>
<style type="text/css"><![CDATA[
.g1_1{
fill: #E5B8B7;
}
.g2_1{
fill: #C0C0C0;
fill-opacity: 0.50196;
}
.g3_1{
fill: none;
stroke: #948A54;
stroke-width: 7.638889;
stroke-linecap: butt;
stroke-linejoin: round;
}
.g4_1{
fill: none;
stroke: #FF0000;
stroke-width: 3.0555556;
stroke-linecap: butt;
stroke-linejoin: round;
}
.g5_1{
}
]]></style>
</defs>
<path fill-rule="evenodd" d="M0,1210.2l935.2,0L935.2,0L0,0L0,1210.2Z" class="g1_1" />
<path fill-rule="evenodd" d="M192.8,830.3c7.9,7.8,14.1,15.6,18.9,23.3c4.9,7.6,7.9,15.1,9.8,22.2c1.8,7.2,1.6,13.9,0.2,20.3c-1.5,6.4,-5.1,12.3,-10.6,17.8c-3.4,3.4,-6.7,6.7,-10.1,10.1c18.7,18.7,37.5,37.4,56.2,56.1c0.6,0.7,1.1,1.3,1.4,2c0.3,0.7,0.3,1.4,0.1,2c-0.1,0.9,-0.4,1.7,-0.9,2.7c-0.7,0.9,-1.5,1.9,-2.7,3.1c-1.2,1.2,-2.2,1.9,-3,2.6c-1,0.5,-1.9,0.9,-2.7,1c-0.8,0.2,-1.4,0.1,-2.1,-0.1c-0.7,-0.3,-1.3,-0.8,-1.9,-1.4C197.4,944,149.5,896.1,101.5,848.1c-3.2,-3.3,-5,-6,-5.4,-8.3c-0.4,-2.3,0,-4.1,1.2,-5.3c6.3,-6.3,12.6,-12.7,19,-19c1.9,-1.9,3.9,-3.7,5.9,-5.2c2.1,-1.3,4.8,-2.9,8.1,-4.4c3.3,-1.4,7.4,-2.2,12.5,-2.2c5,0.1,10.3,1,15.7,3.1c5.4,2,11,4.8,16.8,8.7c5.8,4.1,11.6,8.9,17.5,14.8Zm-10.7,14.1c-6.4,-6.4,-12.4,-11,-17.9,-13.9c-5.6,-2.9,-10.5,-4.4,-14.5,-4.5c-4.1,-0.1,-7.5,0.7,-10.2,2.2c-2.7,1.5,-5.1,3.4,-7.1,5.4c-3.6,3.6,-7.3,7.2,-10.9,10.9c20.8,20.8,41.7,41.7,62.5,62.5c3.6,-3.5,7.1,-7.1,10.7,-10.6c3.5,-3.6,5.7,-7.4,6.5,-11.4c0.7,-3.9,0.5,-8.1,-0.8,-12.6c-1.3,-4.3,-3.5,-9.1,-6.7,-13.9c-3.1,-4.8,-6.9,-9.4,-11.6,-14.1Z" class="g2_1" />
<path fill-rule="evenodd" d="M377.2,860.1c0.6,0.6,1.1,1.3,1.5,1.9c0.3,0.6,0.4,1.2,0.3,2.1c-0.1,0.8,-0.5,1.7,-1.2,2.6c-0.7,1,-1.7,2.2,-3.1,3.6c-1.1,1.1,-2.2,2,-3.1,2.6c-0.8,0.6,-1.7,1,-2.7,1c-0.8,0.1,-1.6,0,-2.4,-0.4c-0.9,-0.3,-2,-1,-3.1,-1.7c-15,-9.6,-30,-19,-44.9,-28.6c-5.2,-3.3,-10.1,-6.1,-14.6,-8.6c-4.5,-2.5,-8.7,-4.2,-12.7,-5.3c-4,-1.2,-7.6,-1.4,-10.9,-0.9c-3.3,0.5,-6.3,2.2,-9,4.8c-2.6,2.7,-5.3,5.3,-7.9,7.9c22.1,22.2,44.3,44.3,66.4,66.4c0.6,0.6,1.1,1.3,1.4,2c0.3,0.7,0.3,1.4,0.1,2c-0.1,0.9,-0.4,1.7,-0.9,2.7c-0.6,0.8,-1.5,1.9,-2.7,3.1c-1.1,1.1,-2.1,1.9,-3,2.6c-1,0.5,-1.9,0.9,-2.7,1c-0.7,0.2,-1.4,0.1,-2.1,-0.2c-0.6,-0.2,-1.3,-0.8,-1.9,-1.4C269.9,871.2,221.8,823.1,173.6,775c-3.1,-3.1,-4.8,-5.8,-5.1,-8.1c-0.4,-2.1,0.1,-3.7,1.1,-4.7c6.3,-6.3,12.6,-12.6,18.9,-18.9c2.2,-2.3,4.2,-4,5.9,-5.4c1.6,-1.2,3.2,-2.3,4.7,-3.3c4.5,-2.3,9.1,-3.8,14,-4.1c4.9,-0.3,9.9,0.2,15.2,1.9c5.2,1.8,10.5,4.2,15.8,7.8c5.4,3.6,10.7,8.1,16.2,13.5c5.1,5.2,9.4,10.3,12.8,15.1c3.4,5.1,5.8,9.9,7.4,14.5c1.8,4.8,2.7,9.3,2.9,13.7c0.2,4.5,-0.2,8.8,-1.2,13c2.6,-0.3,5.4,-0.3,8.2,0.2c3,0.7,6.2,1.6,9.7,3c3.4,1.4,7.2,3.1,11.2,5.4c4,2.2,8.4,4.7,13.3,7.8c14.1,8.9,28.3,17.6,42.3,26.4c3.5,2.3,6,3.9,7.3,4.8c1.4,1,2.4,1.9,3,2.5ZM249.9,768.4C243.8,762.2,237.8,757.8,232,755.2c-5.7,-2.7,-11.3,-3,-16.8,-1.3c-1.8,0.6,-3.4,1.5,-5.1,2.7c-1.6,1.2,-3.7,3,-6,5.3c-3.3,3.3,-6.7,6.6,-10,10c17.5,17.5,35.1,35,52.6,52.5c3.8,-3.8,7.6,-7.7,11.5,-11.5c3.1,-3.1,5.1,-6.6,6,-10.2c0.9,-3.6,1.1,-7.2,0.1,-11.2c-0.8,-3.7,-2.4,-7.6,-4.9,-11.6c-2.6,-4,-5.7,-7.8,-9.5,-11.5Z" class="g2_1" />
<path fill-rule="evenodd" d="M392.1,692c12.6,12.6,23.1,24.8,31.5,36.6c8.5,11.8,14.4,22.9,18.3,33.3c3.8,10.5,4.9,20.3,3.7,29.1c-1.2,9,-5.2,16.8,-12,23.6c-6.7,6.6,-14.1,10.8,-22.6,12c-8.4,1.3,-17.5,0.4,-27.3,-3.1c-9.8,-3.5,-20.5,-9.4,-31.9,-17.7C340.3,797.5,328.2,786.9,315.3,774C303,761.8,292.7,749.7,284.4,738c-8.3,-11.7,-14.2,-22.8,-18.1,-33.3c-3.7,-10.3,-4.7,-20,-3.5,-28.9c1.2,-8.9,5.3,-16.7,12.1,-23.5c6.5,-6.5,13.9,-10.6,22.2,-11.9c8.4,-1.3,17.4,-0.6,27.2,2.9c9.9,3.5,20.5,9.2,31.8,17.4c11.4,8.2,23.3,18.6,36,31.3ZM381,705.9c-8.8,-8.8,-17.5,-16.7,-26,-23.4c-8.4,-6.7,-16.5,-11.6,-24.2,-15.3c-7.6,-3.4,-14.7,-4.9,-21.4,-4.6c-6.6,0.3,-12.4,3,-17.6,8.2c-5.1,5.1,-7.8,11.1,-7.8,18c-0.1,6.8,1.4,14.1,5,21.9c3.6,7.8,8.4,15.9,15,24.3c6.7,8.5,14.1,16.8,22.4,25.1c9.1,9.2,18,17.2,26.6,24c8.5,6.9,16.6,12,24.2,15.6c7.7,3.6,14.8,5.1,21.3,4.7c6.6,-0.3,12.4,-3.1,17.7,-8.3c5.1,-5.2,7.9,-11.2,8,-18.1c0,-6.9,-1.6,-14.4,-5.3,-22.3c-3.6,-7.7,-8.5,-16,-15.3,-24.4c-6.7,-8.5,-14.1,-17,-22.6,-25.4Z" class="g2_1" />
<path fill-rule="evenodd" d="M527.8,671.7c1.3,1.3,2.4,2.4,3.3,3.5c0.9,1,1.7,1.9,2.3,2.7c0.6,0.8,1,1.6,1.5,2.4c0.3,0.8,0.7,1.7,1,3c0.4,1.3,0.6,3.5,0.8,6.5c0.2,3.1,-0.1,6.5,-0.6,10.2c-0.6,3.8,-1.8,7.6,-3.4,11.6c-1.7,3.9,-4.4,7.5,-7.7,10.9c-5.8,5.7,-12.7,9.3,-20.7,10.5c-8,1.2,-17,0.4,-26.8,-3.1c-9.9,-3.4,-20.5,-8.8,-32,-16.9c-11.4,-7.9,-23.4,-18,-36,-30.7C396.6,669.4,386,656.9,377.8,644.8c-8.3,-11.9,-14.1,-23.2,-17.9,-33.7c-3.6,-10.4,-4.6,-19.8,-3.6,-28.4c0.9,-8.5,4.5,-15.5,10.3,-21.4c2.5,-2.5,5.4,-4.7,8.7,-6.2c3.2,-1.6,6.6,-2.8,10,-3.5c3.4,-0.7,6.7,-1.2,9.9,-1.1c3.3,0.2,5.8,0.3,7.5,0.8c1.7,0.5,2.9,0.9,3.7,1.3c0.8,0.4,1.5,0.9,2.4,1.5c0.9,0.8,1.9,1.5,3,2.5c1.2,1,2.4,2.2,3.8,3.7c1.6,1.5,3,3,4,4.2c0.9,1.2,1.7,2.3,2.3,3.2c0.6,1.1,0.9,1.8,1,2.3c0.1,0.7,0,1.3,-0.3,1.6c-0.6,0.6,-2.4,0.7,-5.1,0.3c-2.7,-0.5,-5.9,-0.6,-9.6,-0.8c-3.6,0,-7.6,0.5,-11.8,1.5c-4.2,1,-8,3.4,-11.6,7c-4,4,-6.4,8.9,-6.8,15c-0.4,5.9,0.8,12.9,4,20.5c3.2,7.7,7.9,16,14.3,25c6.6,9.1,14.8,18.5,24.7,28.5c9.9,9.9,19.2,17.9,28.1,24.3c8.7,6.5,16.9,11,24.2,13.8c7.4,3,14,4,19.9,3.2c6,-0.6,11.1,-3.1,15.3,-7.3c3.5,-3.5,5.9,-7.3,7,-11.5c1,-4.3,1.7,-8.2,1.6,-12c0,-3.7,-0.1,-6.9,-0.6,-9.6c-0.4,-2.7,-0.1,-4.4,0.6,-5.1c0.3,-0.3,0.7,-0.5,1.1,-0.5c0.5,0.1,1.2,0.3,1.9,0.8c0.9,0.6,2,1.4,3.2,2.6c1.3,1.1,3,2.6,4.8,4.4Z" class="g2_1" />
<path fill-rule="evenodd" d="M560.1,524c12.7,12.6,23.1,24.8,31.6,36.6c8.4,11.8,14.4,22.9,18.2,33.3c3.8,10.5,5,20.3,3.7,29.1c-1.1,9,-5.2,16.8,-12,23.6c-6.7,6.6,-14.1,10.8,-22.6,11.9c-8.4,1.3,-17.5,0.5,-27.3,-3.1c-9.8,-3.4,-20.5,-9.3,-31.9,-17.6C508.4,629.4,496.2,618.9,483.4,606c-12.3,-12.3,-22.7,-24.3,-31,-36c-8.3,-11.7,-14.2,-22.9,-18.1,-33.3c-3.6,-10.3,-4.6,-20,-3.5,-29c1.3,-8.8,5.3,-16.6,12.1,-23.4c6.5,-6.5,13.9,-10.6,22.3,-11.9c8.3,-1.3,17.3,-0.6,27.2,2.9c9.8,3.5,20.5,9.1,31.8,17.4c11.3,8.2,23.3,18.6,35.9,31.3Zm-11,13.9c-8.8,-8.8,-17.6,-16.7,-26,-23.4c-8.5,-6.7,-16.6,-11.7,-24.3,-15.3c-7.6,-3.5,-14.7,-4.9,-21.3,-4.6c-6.7,0.3,-12.5,3,-17.6,8.2c-5.2,5.1,-7.8,11,-7.9,17.9c0,6.9,1.5,14.2,5.1,22c3.5,7.8,8.3,15.9,14.9,24.3c6.7,8.4,14.1,16.8,22.4,25.1c9.2,9.1,18,17.1,26.6,24c8.5,6.9,16.6,12,24.2,15.5c7.7,3.7,14.8,5.1,21.3,4.7c6.6,-0.2,12.5,-3,17.7,-8.2c5.1,-5.2,7.9,-11.3,8,-18.2c0,-6.8,-1.5,-14.3,-5.2,-22.2c-3.6,-7.8,-8.6,-16,-15.3,-24.5C565,554.8,557.5,546.3,549.1,537.9Z" class="g2_1" />
<path fill-rule="evenodd" d="M653.2,430.9c12.6,12.6,23.1,24.8,31.6,36.6c8.4,11.8,14.4,22.9,18.2,33.3c3.8,10.5,4.9,20.3,3.7,29.1c-1.2,9,-5.2,16.8,-12,23.6c-6.7,6.6,-14.1,10.8,-22.6,12c-8.4,1.3,-17.5,0.4,-27.3,-3.1C635,558.9,624.3,553,612.9,544.7c-11.5,-8.3,-23.6,-18.9,-36.5,-31.8c-12.3,-12.2,-22.6,-24.3,-30.9,-36c-8.3,-11.7,-14.2,-22.8,-18.1,-33.3c-3.7,-10.3,-4.7,-20,-3.5,-28.9c1.2,-8.9,5.3,-16.7,12.1,-23.5c6.5,-6.5,13.9,-10.6,22.2,-11.9c8.4,-1.3,17.4,-0.6,27.3,2.9c9.8,3.5,20.4,9.2,31.7,17.4c11.4,8.2,23.3,18.6,36,31.3Zm-11.1,13.9C633.4,436,624.6,428.1,616.2,421.4c-8.5,-6.7,-16.6,-11.6,-24.3,-15.3c-7.6,-3.5,-14.7,-4.9,-21.4,-4.6c-6.6,0.3,-12.4,3,-17.6,8.2c-5.1,5.1,-7.8,11.1,-7.8,17.9c-0.1,6.9,1.5,14.2,5,22c3.6,7.8,8.4,15.9,15,24.3c6.7,8.5,14,16.8,22.4,25.1c9.1,9.2,18,17.2,26.6,24c8.5,6.9,16.6,12,24.2,15.5c7.7,3.7,14.8,5.2,21.3,4.8c6.6,-0.3,12.5,-3.1,17.7,-8.3c5.1,-5.2,7.9,-11.2,8,-18.1c0,-6.9,-1.6,-14.4,-5.3,-22.3c-3.6,-7.7,-8.5,-16,-15.2,-24.4c-6.8,-8.5,-14.2,-17,-22.7,-25.4Z" class="g2_1" />
<path fill-rule="evenodd" d="M695.9,327.1c7.9,7.9,14.1,15.7,18.9,23.3c4.9,7.7,8,15.2,9.8,22.3c1.8,7.2,1.7,13.9,0.2,20.3c-1.5,6.4,-5.1,12.3,-10.6,17.8c-3.3,3.4,-6.7,6.7,-10,10.1c18.7,18.7,37.4,37.4,56.1,56.1c0.6,0.6,1.1,1.3,1.4,2c0.3,0.7,0.3,1.4,0.1,2c-0.1,0.9,-0.4,1.7,-0.9,2.7c-0.6,0.8,-1.5,1.9,-2.7,3.1c-1.1,1.1,-2.1,1.9,-3,2.5c-1,0.6,-1.9,0.9,-2.7,1.1c-0.7,0.2,-1.4,0.1,-2.1,-0.2c-0.6,-0.2,-1.3,-0.8,-1.9,-1.4C700.5,440.9,652.6,392.9,604.6,345c-3.2,-3.3,-5,-6,-5.4,-8.3c-0.4,-2.3,0,-4.1,1.2,-5.3c6.3,-6.3,12.7,-12.7,19,-19c1.9,-1.9,3.9,-3.7,5.9,-5.2c2.1,-1.4,4.8,-2.9,8.1,-4.5c3.3,-1.4,7.4,-2.2,12.5,-2.1c5,0.1,10.3,1,15.7,3.1c5.4,2,11.1,4.8,16.8,8.7c5.9,4,11.7,8.8,17.5,14.7Zm-10.7,14.2c-6.4,-6.4,-12.4,-11,-17.9,-14c-5.6,-2.8,-10.5,-4.4,-14.5,-4.4c-4,-0.2,-7.4,0.6,-10.2,2.1c-2.7,1.6,-5.1,3.5,-7.1,5.4c-3.6,3.7,-7.2,7.3,-10.9,11c20.9,20.8,41.7,41.6,62.6,62.5c3.5,-3.6,7.1,-7.1,10.6,-10.6c3.6,-3.6,5.7,-7.4,6.5,-11.4c0.8,-3.9,0.5,-8.2,-0.8,-12.6c-1.3,-4.4,-3.5,-9.1,-6.6,-13.9c-3.2,-4.8,-7,-9.4,-11.7,-14.1Z" class="g2_1" />
<image preserveAspectRatio="none" x="337" y="55" width="261" height="36" xlink:href="img/1.png" />
<path d="M30.6,1184l863.6,0l0,-1158L30.6,26l0,1158Z" class="g3_1" />
<path d="M30.9,153.4l863.7,1.5" class="g4_1" />
<path fill-rule="evenodd" d="M287.1,183.7l360.7,0l0,-2.4l-360.7,0l0,2.4Z" class="g5_1" />
<path fill-rule="evenodd" d="M55,239.1l210.5,0l0,-1.8L55,237.3l0,1.8Z" class="g5_1" />
<path fill-rule="evenodd" d="M55,417.2l246.8,0l0,-1.9L55,415.3l0,1.9Z" class="g5_1" />
<path fill-rule="evenodd" d="M55,596.3l139.6,0l0,-1.9L55,594.4l0,1.9Z" class="g5_1" />
<path fill-rule="evenodd" d="M55,832.3l297.4,0l0,-1.9L55,830.4l0,1.9Z" class="g5_1" />
</svg>